# xmcd CD database file
#
# Track frame offsets:
#	150
#	3360
#	17305
#	30617
#	41427
#	44070
#	56422
#	77747
#	82985
#	94770
#	109340
#	121102
#	140647
#	159187
#	172330
#	191967
#	212305
#	215382
#	228890
#	239710
#	254252
#	263837
#	276442
#	288707
#	300910
#	312382
#	329325
#
# Disc length: 4579 seconds
#
# Revision: 0
# Processed by: cddbd v1.5.2PL0 Copyright (c) Steve Scherf et al.
# Submitted via: CDex 1.70beta1
#
DISCID=7a11e11b
DTITLE=The Mezzrow Bechet Quintet - Septet - King Jazz Story, Vol. 2: Really the Blues
DYEAR=1900
DGENRE=Jazz
TTITLE0=Mezzrow Talks
TTITLE1=Really the Blues, Pt.1 
TTITLE2=Really the Blues, Pt. 2
TTITLE3=133rd Street Blues
TTITLE4=Mezzrow Talks
TTITLE5=You Got to Give It to Me
TTITLE6=Where Am I 
TTITLE7=Mezzrow Talks 
TTITLE8=Layin' My Rules in Blues 
TTITLE9=Revolutionary Blues, Pt. 1
TTITLE10=Revolutionary Blues, Pt. 2 
TTITLE11=I Want Some 
TTITLE12=I'm Speaking My Mind 
TTITLE13=Baby, I'm Cuttin' Out 
TTITLE14=I'm Goin' Away from Here 
TTITLE15=Kaiser's Last Break
TTITLE16=Mezzrow Talks 
TTITLE17=Saw Mill Man Blues 
TTITLE18=Gully Low Blues 
TTITLE19=House Party 
TTITLE20=Mezzrow Talks 
TTITLE21=Bowin' the Blues 
TTITLE22=Cow Cow Blues
TTITLE23=Hey Daddy Blues
TTITLE24=32 Bars of Blues 
TTITLE25=Never Will I Forget the Blues 
TTITLE26=Jelly Roll 
EXTD=
EXTT0=
EXTT1=
EXTT2=
EXTT3=
EXTT4=
EXTT5=
EXTT6=
EXTT7=
EXTT8=
EXTT9=
EXTT10=
EXTT11=
EXTT12=
EXTT13=
EXTT14=
EXTT15=
EXTT16=
EXTT17=
EXTT18=
EXTT19=
EXTT20=
EXTT21=
EXTT22=
EXTT23=
EXTT24=
EXTT25=
EXTT26=
PLAYORDER=
